<?xml version="1.0" standalone="no"?>
<!DOCTYPE svg PUBLIC "-//W3C//DTD SVG 20010904//EN"
 "http://www.w3.org/TR/2001/REC-SVG-20010904/DTD/svg10.dtd">
<svg version="1.0" xmlns="http://www.w3.org/2000/svg"
 width="274.000000pt" height="294.000000pt" viewBox="0 0 274.000000 294.000000"
 preserveAspectRatio="xMidYMid meet">
<metadata>
Created by potrace 1.10, written by Peter Selinger 2001-2011
</metadata>
<g transform="translate(0.000000,294.000000) scale(0.100000,-0.100000)"
fill="#000000" stroke="none">
<path d="M690 2447 c-30 -16 -51 -37 -67 -67 l-23 -43 0 -799 0 -798 -38 0
c-21 0 -43 -5 -50 -12 -17 -17 -17 -229 0 -246 9 -9 161 -12 624 -12 535 0
613 2 624 15 18 22 8 234 -11 246 -8 5 -29 9 -46 9 l-33 0 0 365 0 365 24 0
c13 0 34 -9 47 -19 l24 -19 5 -389 c5 -374 6 -389 27 -429 46 -87 145 -144
248 -144 54 0 157 51 192 95 60 75 62 90 62 446 1 281 3 328 16 333 12 4 15
26 15 105 l0 99 28 10 c41 14 90 59 115 106 21 39 22 53 22 273 l0 231 -30 44
c-20 29 -47 51 -82 68 l-53 25 0 83 0 82 -30 0 -30 0 0 -85 0 -85 -70 0 -70 0
0 85 0 85 -30 0 -30 0 0 -82 0 -83 -53 -25 c-35 -17 -62 -39 -82 -68 l-30 -44
0 -231 c0 -220 1 -234 22 -273 25 -47 74 -92 115 -106 l28 -10 0 -99 c0 -79 3
-101 15 -105 13 -5 15 -50 15 -320 0 -301 -1 -315 -20 -334 -25 -25 -61 -26
-89 -2 -20 17 -21 24 -22 382 0 324 -2 371 -18 418 -33 96 -124 169 -227 179
l-54 6 0 318 c0 176 1 320 1 322 4 8 -36 86 -54 106 -46 50 -58 51 -485 51
-397 0 -399 0 -442 -23z m860 -10 c14 -4 30 -13 36 -22 6 -8 15 -11 19 -7 5 4
5 -1 2 -11 -4 -11 -3 -16 3 -12 22 13 28 -53 33 -377 3 -186 8 -342 12 -348 3
-5 20 -10 36 -10 17 0 28 -3 26 -7 -3 -5 15 -9 39 -10 68 -2 126 -48 164 -130
19 -39 20 -69 23 -415 3 -249 8 -381 15 -395 6 -11 8 -23 4 -27 -3 -4 1 -4 10
-1 9 4 19 2 23 -4 3 -6 23 -11 43 -11 30 0 41 6 57 30 13 20 22 25 27 17 4 -7
6 134 5 313 -2 294 -4 327 -19 342 -15 15 -18 36 -18 106 0 95 -8 111 -57 126
-28 9 -83 71 -83 96 0 10 -6 20 -12 22 -10 4 -13 59 -13 230 l0 224 27 42 c26
38 68 72 68 55 0 -4 4 -3 8 2 4 6 19 16 35 24 26 14 27 17 27 93 0 50 4 77 10
73 6 -3 10 -37 10 -74 0 -39 5 -72 12 -79 18 -18 142 -16 158 3 7 9 12 43 11
85 -1 45 3 69 9 65 6 -3 10 -36 10 -72 0 -68 16 -103 47 -103 7 0 13 -5 13
-11 0 -5 4 -8 9 -5 13 8 59 -31 79 -67 15 -28 17 -62 17 -252 0 -208 -1 -222
-22 -261 -23 -43 -59 -77 -112 -106 l-31 -17 0 -95 c0 -72 -3 -97 -14 -103
-12 -7 -15 -65 -18 -348 -3 -376 -2 -368 -72 -438 -66 -66 -165 -90 -249 -61
-47 17 -130 81 -122 95 4 5 1 9 -5 9 -6 0 -15 12 -21 27 -5 16 -12 35 -15 43
-3 8 -5 182 -4 386 l1 372 -31 26 c-17 14 -44 26 -58 26 -59 0 -57 13 -56
-385 l0 -365 23 -23 c13 -12 21 -16 17 -9 -5 8 -1 11 11 9 52 -11 51 -6 43
-215 0 -10 -125 -12 -607 -10 l-608 3 -2 104 c-3 115 0 121 53 121 20 0 34 6
38 16 3 9 6 371 6 805 0 770 0 791 20 829 20 40 42 57 89 70 31 9 785 6 821
-3z"/>
<path d="M767 2427 c3 -5 -1 -7 -8 -6 -19 4 -70 -25 -94 -53 -18 -21 -20 -37
-19 -163 l0 -140 -7 135 c-3 74 -5 -162 -3 -525 4 -661 11 -942 24 -950 15
-10 529 -17 728 -10 158 5 216 11 226 21 12 11 13 148 10 808 l-3 796 -22 29
c-40 54 -44 55 -456 61 -209 3 -379 1 -376 -3z m800 -51 l28 -24 3 -806 2
-806 -465 0 -465 0 0 801 0 801 29 29 29 29 406 0 405 0 28 -24z m-920 -528
c-2 -29 -3 -6 -3 52 0 58 1 81 3 53 2 -29 2 -77 0 -105z m0 -170 c-2 -24 -4
-7 -4 37 0 44 2 63 4 43 2 -21 2 -57 0 -80z m0 -200 c-2 -29 -3 -6 -3 52 0 58
1 81 3 53 2 -29 2 -77 0 -105z"/>
<path d="M777 2263 c-13 -12 -8 -438 5 -451 17 -17 689 -17 706 0 17 17 17
429 0 446 -9 9 -102 12 -358 12 -191 0 -350 -3 -353 -7z m698 -223 l0 -205
-340 0 -340 0 -3 208 -2 207 342 -2 343 -3 0 -205z"/>
<path d="M827 2212 c-14 -16 -17 -44 -17 -179 0 -124 3 -163 14 -172 9 -8 103
-11 310 -11 250 0 299 2 312 15 22 22 19 322 -4 348 -14 15 -42 17 -307 17
-270 0 -293 -1 -308 -18z m603 -177 l0 -165 -300 0 -300 0 0 165 0 165 300 0
300 0 0 -165z"/>
<path d="M900 1970 c0 -33 2 -35 35 -35 33 0 35 2 35 35 0 33 -2 35 -35 35
-33 0 -35 -2 -35 -35z"/>
<path d="M1030 1970 c0 -33 2 -35 35 -35 33 0 35 2 35 31 0 29 -3 32 -35 36
-34 4 -35 3 -35 -32z"/>
<path d="M1165 1970 c0 -33 2 -35 35 -35 33 0 35 2 35 35 0 33 -2 35 -35 35
-33 0 -35 -2 -35 -35z"/>
<path d="M1300 1974 c0 -29 3 -32 35 -36 34 -4 35 -3 35 32 0 33 -2 35 -35 35
-33 0 -35 -2 -35 -31z"/>
<path d="M765 1705 c0 -33 2 -35 31 -35 29 0 32 3 36 35 4 34 3 35 -32 35 -33
0 -35 -2 -35 -35z"/>
<path d="M1060 1479 c-102 -122 -187 -230 -188 -241 -5 -31 14 -38 106 -38 46
0 81 -4 78 -9 -15 -24 -87 -276 -84 -295 2 -14 10 -21 25 -21 16 0 70 57 209
220 102 121 189 226 191 233 12 30 -18 42 -104 42 -71 0 -84 2 -79 15 27 72
87 288 82 300 -3 8 -16 15 -28 15 -17 -1 -68 -54 -208 -221z m210 168 c0 -17
-43 -151 -50 -157 -3 -3 -7 -18 -8 -34 -1 -17 -6 -32 -11 -35 -11 -8 -10 -43
2 -58 6 -9 37 -13 88 -13 43 0 80 -4 84 -9 3 -5 -5 -21 -18 -35 -12 -13 -38
-43 -57 -66 -85 -103 -93 -111 -103 -101 -7 7 6 28 38 63 70 78 80 95 65 113
-7 8 -16 12 -21 9 -5 -3 -9 -1 -9 5 0 6 -11 5 -28 -1 -16 -6 -41 -8 -55 -4
-31 7 -31 9 0 128 13 51 14 71 6 79 -9 9 -17 5 -35 -12 -33 -35 -132 -149
-159 -184 -13 -16 -27 -33 -32 -36 -5 -4 -7 -15 -5 -25 3 -16 14 -19 77 -22
70 -3 73 -4 67 -25 -45 -166 -45 -161 -29 -177 13 -13 20 -9 62 39 32 37 50
50 55 42 6 -9 -75 -116 -114 -151 -4 -3 -18 -21 -33 -41 -38 -51 -76 -44 -48
9 5 9 24 68 42 130 42 143 40 147 -64 147 -42 0 -79 4 -83 7 -6 7 51 84 100
135 12 11 31 34 43 50 50 64 72 85 84 77 7 -4 9 -3 6 3 -6 10 12 39 78 121 36
45 65 58 65 29z m-110 -216 c-16 -51 -26 -99 -23 -107 7 -19 42 -27 103 -22
27 1 49 0 48 -3 -8 -21 -210 -251 -206 -234 3 11 16 54 28 96 31 104 28 109
-65 109 l-76 0 88 103 c49 56 97 114 108 129 11 14 21 25 22 24 1 -1 -11 -44
-27 -95z"/>
<path d="M765 1470 l0 -135 35 0 35 0 0 135 0 135 -35 0 -35 0 0 -135z m45 6
c0 -59 -4 -108 -10 -111 -6 -4 -10 33 -10 104 0 67 4 111 10 111 6 0 10 -41
10 -104z"/>
<path d="M2122 2248 c-7 -7 -12 -29 -12 -51 0 -23 -4 -36 -10 -32 -5 3 -10 19
-10 34 0 56 -43 63 -93 17 -36 -34 -47 -59 -47 -113 0 -37 6 -58 25 -84 50
-67 54 -69 222 -69 180 0 200 7 237 85 20 42 23 58 16 100 -4 28 -8 46 -9 40
0 -5 -10 4 -20 21 -24 39 -74 62 -96 44 -8 -7 -15 -25 -15 -41 0 -15 -4 -31
-10 -34 -6 -4 -10 9 -10 32 0 54 -13 63 -90 63 -38 0 -71 -5 -78 -12z m148
-58 c0 -49 1 -50 30 -50 29 0 30 2 30 45 0 49 3 51 38 31 60 -33 80 -122 42
-184 -31 -50 -71 -62 -210 -62 -139 0 -179 12 -210 62 -36 60 -21 140 36 183
34 25 44 18 44 -30 0 -43 1 -45 30 -45 29 0 30 1 30 50 l0 50 70 0 70 0 0 -50z"/>
<path d="M2165 2070 c0 -33 2 -35 35 -35 33 0 35 2 35 35 0 33 -2 35 -35 35
-33 0 -35 -2 -35 -35z"/>
<path d="M1966 1965 c-16 -16 -17 -32 -12 -144 6 -139 8 -160 16 -158 11 4 59
-47 53 -56 -4 -6 -1 -7 7 -2 7 4 16 2 20 -5 6 -9 43 -15 119 -18 118 -5 169 6
218 47 31 26 63 82 63 111 0 15 6 32 13 39 6 8 7 11 1 8 -7 -4 -11 22 -13 81
-1 48 -6 91 -11 96 -5 5 -27 0 -52 -13 -39 -18 -62 -21 -192 -21 -147 0 -198
10 -208 41 -3 8 -10 6 -22 -6z m41 -37 c35 -21 50 -23 188 -23 147 0 174 5
235 42 3 2 3 -52 0 -119 -6 -136 -17 -164 -83 -204 -47 -28 -247 -28 -294 0
-66 40 -77 68 -83 204 -3 67 -4 122 -3 122 1 0 19 -10 40 -22z"/>
<path d="M1659 1614 c-6 -7 -9 -30 -7 -51 3 -37 4 -38 50 -47 36 -6 55 -17 79
-43 l31 -35 -6 -222 c-4 -187 5 -494 16 -560 5 -33 109 -123 155 -135 34 -9
109 -10 121 0 1 1 5 2 10 3 14 2 77 50 92 70 8 11 25 38 38 60 22 38 22 43 22
360 -1 211 -5 325 -12 333 -12 15 -84 17 -93 3 -5 -8 -16 -461 -15 -628 0 -49
-50 -92 -108 -92 -35 0 -49 6 -73 29 l-29 29 -2 284 c-2 156 -2 333 0 393 2
76 -1 105 -8 95 -8 -12 -10 -12 -10 6 0 28 -54 99 -96 124 -43 27 -140 42
-155 24z m129 -33 c47 -24 77 -56 97 -103 13 -31 15 -96 15 -405 0 -347 1
-370 20 -400 35 -58 99 -82 163 -60 32 11 74 62 81 98 2 13 5 160 5 327 l1
302 30 0 30 0 0 -325 c0 -364 0 -366 -68 -427 -96 -87 -252 -54 -308 65 l-24
52 0 370 c0 343 -1 372 -19 398 -25 39 -49 53 -98 62 -39 6 -43 9 -43 36 0 27
2 29 40 29 23 0 57 -9 78 -19z"/>
<path d="M2120 1541 c-14 -27 -13 -134 2 -149 15 -15 122 -16 149 -2 16 9 19
22 19 78 0 40 -5 73 -12 80 -7 7 -40 12 -80 12 -56 0 -69 -3 -78 -19z m150
-71 l0 -70 -70 0 -70 0 0 70 0 70 70 0 70 0 0 -70z"/>
<path d="M633 800 c0 -36 2 -50 4 -32 2 17 2 47 0 65 -2 17 -4 3 -4 -33z"/>
<path d="M563 683 c-17 -6 -18 -144 -1 -161 9 -9 150 -12 575 -12 546 0 563 1
573 19 14 27 13 134 -2 149 -9 9 -149 12 -573 11 -308 0 -566 -3 -572 -6z
m1137 -78 l0 -65 -565 0 -565 0 0 65 0 65 565 0 565 0 0 -65z"/>
</g>
</svg>
