<?xml version="1.0" standalone="no"?>
<!DOCTYPE svg PUBLIC "-//W3C//DTD SVG 20010904//EN"
 "http://www.w3.org/TR/2001/REC-SVG-20010904/DTD/svg10.dtd">
<svg version="1.0" xmlns="http://www.w3.org/2000/svg"
 width="822.000000pt" height="882.000000pt" viewBox="0 0 822.000000 882.000000"
 preserveAspectRatio="xMidYMid meet">
<metadata>
Created by potrace 1.10, written by Peter Selinger 2001-2011
</metadata>
<g transform="translate(0.000000,882.000000) scale(0.100000,-0.100000)"
fill="#76b98b" stroke="none">
<path d="M2150 7395 c-14 -8 -35 -14 -46 -15 -12 0 -27 -7 -34 -15 -7 -8 -20
-15 -30 -15 -26 0 -165 -134 -190 -183 -11 -23 -25 -49 -29 -57 -37 -67 -36
-3 -39 -2487 l-2 -2403 -108 0 c-87 0 -112 -4 -135 -18 -58 -39 -56 -27 -57
-406 l0 -350 27 -28 27 -28 1850 0 c1796 1 1852 1 1874 19 12 11 22 24 22 29
0 5 7 15 15 22 13 10 15 53 16 264 1 179 4 240 10 211 5 -22 14 -44 19 -49 6
-6 10 -20 10 -32 0 -12 7 -27 15 -34 8 -7 15 -17 15 -22 0 -13 88 -126 131
-168 92 -89 130 -117 216 -158 26 -13 61 -30 76 -38 16 -8 41 -14 55 -14 15
-1 38 -7 52 -15 37 -21 324 -21 364 0 15 8 41 15 56 15 15 0 33 7 40 15 7 8
23 15 35 15 12 0 28 7 35 15 7 8 18 15 26 15 24 0 134 81 199 145 64 65 145
175 145 199 0 8 7 19 15 26 8 7 15 23 15 35 0 12 7 28 15 35 8 7 15 27 15 44
0 18 6 38 13 44 9 10 13 228 17 995 l5 981 21 11 c80 40 84 56 84 367 0 254 1
268 18 268 11 0 39 11 63 25 24 14 51 28 59 32 23 10 134 95 147 113 6 8 27
33 47 54 19 22 43 56 53 75 10 20 24 42 31 49 6 7 12 22 12 31 0 10 7 24 15
31 8 7 15 25 15 40 0 15 7 41 15 56 22 42 22 1276 0 1314 -8 14 -14 38 -15 53
0 15 -7 30 -15 33 -8 4 -15 16 -15 29 0 12 -7 28 -15 35 -8 7 -15 18 -15 25 0
23 -165 181 -213 204 -26 13 -49 27 -53 32 -3 5 -15 9 -28 9 -12 0 -27 5 -33
11 -6 6 -26 14 -45 18 l-33 7 -2 242 c-1 133 -5 247 -8 252 -9 15 -200 13
-213 -2 -6 -8 -9 -102 -8 -241 0 -126 -3 -231 -7 -234 -9 -6 -349 -4 -355 2
-2 2 -3 106 -3 230 1 160 -1 231 -10 241 -16 20 -202 20 -218 0 -9 -10 -12
-83 -10 -252 l1 -239 -32 -6 c-17 -4 -37 -12 -43 -18 -6 -6 -21 -11 -33 -11
-13 0 -25 -4 -28 -9 -4 -5 -27 -19 -53 -32 -48 -23 -213 -181 -213 -204 0 -7
-7 -18 -15 -25 -8 -7 -15 -20 -15 -30 0 -10 -7 -23 -15 -30 -8 -7 -15 -23 -15
-35 0 -13 -7 -36 -15 -51 -22 -43 -22 -1275 0 -1318 8 -15 15 -41 15 -56 0
-15 7 -33 15 -40 8 -7 15 -21 15 -31 0 -19 77 -139 109 -170 9 -9 25 -27 37
-40 31 -35 108 -96 144 -112 8 -4 35 -18 59 -32 24 -14 52 -25 63 -25 17 0 18
-14 18 -268 0 -311 4 -327 84 -367 l21 -11 3 -899 c3 -990 6 -939 -57 -1008
-28 -31 -101 -67 -135 -67 -38 0 -146 63 -146 85 0 7 -7 18 -15 25 -13 11 -15
151 -18 1104 -3 1122 -4 1152 -43 1229 -8 16 -14 37 -14 48 0 11 -7 22 -15 25
-8 4 -15 16 -15 29 0 12 -7 28 -15 35 -8 7 -15 17 -15 22 0 31 -197 248 -227
248 -6 0 -16 6 -20 13 -4 7 -29 24 -55 36 -27 13 -50 27 -54 32 -3 5 -16 9
-28 9 -13 0 -29 7 -36 15 -7 8 -24 15 -39 15 -14 1 -37 7 -51 15 -18 10 -60
14 -147 15 l-123 0 0 983 c-1 832 -3 986 -15 1007 -8 14 -14 39 -15 56 0 17
-7 37 -15 44 -8 7 -15 21 -15 32 0 10 -7 21 -15 24 -8 4 -15 12 -15 19 0 25
-159 175 -185 175 -7 0 -18 7 -25 15 -7 8 -24 15 -39 15 -14 0 -35 7 -45 15
-29 22 -2438 22 -2476 0z m2451 -234 c64 -29 121 -83 142 -136 39 -96 37 12
37 -2457 l0 -2348 -1385 0 -1385 0 0 2384 c0 2106 2 2385 15 2396 8 7 15 21
15 31 0 24 95 119 119 119 10 0 24 7 31 15 11 13 155 15 1190 15 1143 0 1179
-1 1221 -19z m2165 -485 c9 -4 11 -34 8 -127 -6 -165 -3 -169 109 -169 122 0
122 0 121 154 -1 96 2 126 12 126 7 0 16 -4 19 -10 3 -5 15 -10 26 -10 23 0
35 -9 98 -71 25 -26 54 -64 65 -85 10 -22 25 -51 32 -66 20 -37 19 -206 -1
-232 -8 -11 -15 -30 -15 -42 0 -12 -7 -27 -15 -34 -8 -7 -15 -18 -15 -24 0
-17 -99 -103 -145 -126 -21 -11 -49 -20 -60 -20 -12 0 -27 -6 -33 -12 -10 -10
-98 -14 -354 -16 -288 -3 -349 -1 -389 12 -26 9 -53 16 -60 16 -63 0 -229 151
-229 207 0 11 -7 28 -15 39 -10 13 -14 46 -14 114 0 68 4 101 14 114 8 11 15
26 15 34 0 27 70 119 117 153 43 31 96 59 112 59 3 0 4 -52 3 -115 -5 -160 -2
-165 118 -165 119 0 122 3 119 170 -1 74 3 125 9 129 12 7 328 5 348 -3z
m-813 -893 c4 -7 14 -13 21 -13 7 0 38 -13 69 -30 31 -16 69 -30 84 -30 16 -1
39 -7 53 -15 38 -22 787 -22 816 0 10 8 35 15 55 15 20 0 42 7 49 15 7 8 21
15 31 15 9 0 24 7 33 15 8 8 20 15 26 15 6 0 27 12 46 26 l34 26 0 -313 c-1
-260 -3 -317 -15 -333 -8 -11 -15 -32 -15 -47 0 -15 -4 -31 -10 -34 -5 -3 -17
-22 -26 -41 -19 -39 -139 -164 -158 -164 -7 0 -17 -5 -24 -12 -41 -41 -158
-56 -432 -56 -228 0 -344 8 -362 26 -6 6 -22 12 -34 12 -12 0 -27 7 -34 15 -7
8 -18 15 -24 15 -24 0 -166 149 -166 174 0 7 -7 19 -15 26 -8 7 -15 25 -15 39
0 15 -7 36 -15 47 -12 16 -14 73 -15 333 0 297 1 313 18 300 9 -8 21 -20 25
-26z m-723 -1018 c14 -8 37 -14 51 -15 15 0 32 -7 39 -15 7 -8 20 -15 30 -15
10 0 23 -7 30 -15 7 -8 17 -15 22 -15 26 0 158 -123 158 -147 0 -7 6 -16 13
-20 6 -4 20 -26 30 -48 10 -22 25 -53 33 -68 8 -16 14 -39 14 -52 0 -12 7 -42
15 -65 13 -37 15 -188 15 -1125 0 -950 2 -1084 15 -1095 8 -7 15 -21 15 -32 0
-59 181 -227 247 -228 10 0 27 -7 37 -15 27 -21 165 -21 192 0 10 8 31 15 45
15 15 0 32 7 39 15 7 8 18 15 26 15 17 0 154 137 154 154 0 8 7 19 15 26 8 7
15 24 15 39 0 15 6 33 13 39 9 10 13 219 17 949 l5 936 75 0 75 0 3 -947 c2
-827 0 -950 -13 -976 -8 -16 -15 -38 -15 -48 0 -10 -11 -39 -25 -63 -13 -24
-29 -55 -35 -68 -15 -33 -154 -171 -173 -171 -9 0 -18 -4 -21 -9 -9 -14 -90
-51 -112 -51 -10 -1 -30 -7 -44 -15 -36 -20 -257 -20 -284 0 -11 8 -29 15 -40
15 -38 0 -147 64 -205 120 -68 65 -121 132 -121 153 0 8 -7 20 -15 27 -8 7
-15 22 -15 34 0 12 -8 33 -17 46 -17 23 -18 96 -21 1115 -2 669 -7 1094 -13
1100 -5 5 -9 26 -9 46 0 21 -12 61 -27 91 -27 54 -143 178 -167 178 -8 0 -19
7 -26 15 -7 8 -25 15 -39 15 -15 0 -36 7 -47 15 -13 10 -44 14 -96 15 l-78 0
0 80 0 80 98 0 c65 -1 105 -5 122 -15z m1537 -188 c6 -6 5 -348 -1 -354 -5 -5
-347 -6 -352 0 -9 8 -5 350 4 356 11 7 342 5 349 -2z m-1627 -202 c7 -8 21
-15 32 -15 10 0 34 -17 53 -37 30 -32 34 -45 40 -107 3 -39 7 -511 8 -1049 2
-900 1 -977 -14 -977 -9 0 -19 7 -23 15 -4 12 -27 15 -116 15 l-110 0 0 1085
0 1085 59 0 c40 0 63 -5 71 -15z m-60 -2570 l0 -185 -1685 0 -1685 0 0 185 0
185 1685 0 1685 0 0 -185z"/>
<path d="M2314 6787 c-43 -46 -44 -62 -44 -686 0 -658 0 -656 61 -698 l33 -23
1025 0 1024 0 43 36 44 35 0 652 0 651 -27 28 -27 28 -1055 0 -1056 0 -21 -23z
m1956 -692 l0 -485 -882 0 -883 0 0 485 0 485 883 0 882 0 0 -485z"/>
<path d="M3475 6020 c-8 -14 -10 -228 -2 -237 9 -9 228 -6 235 3 4 5 6 60 4
122 l-3 112 -99 0 c-54 0 -105 3 -113 6 -8 3 -18 0 -22 -6z"/>
<path d="M2684 6007 c-2 -7 -3 -60 -2 -118 l3 -104 110 0 110 0 0 115 0 115
-108 3 c-83 2 -109 0 -113 -11z"/>
<path d="M3074 6007 c-2 -7 -3 -60 -2 -118 l3 -104 110 0 110 0 3 95 c4 148
11 140 -114 140 -77 0 -106 -3 -110 -13z"/>
<path d="M3886 6005 c-9 -24 -7 -198 2 -213 6 -9 36 -12 113 -10 l104 3 0 115
0 115 -106 3 c-91 2 -108 0 -113 -13z"/>
<path d="M2274 5207 c-2 -7 -3 -58 -2 -113 l3 -99 115 0 115 0 0 110 0 110
-113 3 c-87 2 -114 0 -118 -11z"/>
<path d="M3775 5110 c-3 -5 -17 -10 -30 -10 -16 0 -36 -15 -62 -47 -21 -25
-46 -54 -55 -65 -10 -10 -18 -20 -18 -23 0 -3 -10 -16 -23 -28 -12 -12 -48
-53 -80 -92 -33 -38 -82 -96 -110 -129 -29 -32 -63 -74 -76 -92 -13 -19 -28
-34 -33 -34 -4 0 -8 -6 -8 -14 0 -8 -4 -16 -8 -18 -10 -4 -142 -154 -142 -161
0 -3 -21 -27 -46 -53 -25 -27 -66 -75 -91 -107 -25 -32 -56 -70 -70 -85 -14
-15 -42 -47 -61 -72 -20 -25 -43 -52 -52 -61 -8 -9 -33 -38 -55 -65 -22 -27
-55 -65 -72 -85 -18 -20 -33 -40 -33 -43 0 -4 -13 -19 -28 -34 -16 -15 -34
-41 -41 -59 -17 -42 2 -95 46 -128 32 -25 33 -25 267 -25 218 0 236 -1 236
-17 -1 -10 -7 -29 -15 -43 -8 -14 -14 -37 -15 -51 0 -14 -7 -34 -15 -45 -8
-10 -15 -35 -15 -55 0 -20 -7 -42 -15 -49 -8 -7 -15 -29 -15 -50 0 -21 -7 -43
-15 -50 -8 -7 -15 -27 -15 -44 -1 -17 -7 -42 -15 -56 -8 -14 -14 -39 -15 -56
0 -17 -7 -37 -15 -44 -8 -7 -15 -27 -15 -44 0 -18 -7 -41 -15 -52 -8 -10 -15
-32 -15 -49 0 -16 -7 -39 -15 -49 -8 -11 -15 -36 -15 -56 0 -20 -5 -41 -12
-48 -9 -9 -8 -21 2 -51 17 -53 57 -81 114 -81 41 0 49 4 95 53 28 29 67 75 87
101 20 27 51 63 68 81 17 18 56 63 86 100 30 37 72 86 93 108 21 23 52 61 69
85 17 23 35 42 40 42 4 0 8 4 8 10 0 5 15 24 33 43 33 34 41 44 112 131 22 28
55 66 73 85 18 20 47 55 64 79 17 23 35 42 40 42 4 0 8 4 8 9 0 5 21 31 46 57
25 27 67 76 92 109 25 33 49 62 53 65 4 3 37 41 73 84 60 73 66 84 66 125 0
37 -6 52 -31 79 l-30 32 -245 0 -245 0 7 38 c4 20 13 49 20 64 8 15 14 40 14
55 0 15 7 37 15 47 8 11 15 34 15 52 0 17 7 37 15 44 8 7 15 27 15 44 1 17 7
42 15 56 8 14 14 39 15 56 0 17 7 37 15 44 8 7 15 29 15 50 0 21 7 43 15 50 8
7 15 27 15 44 1 17 7 42 15 56 8 14 15 39 15 55 0 17 7 39 15 49 9 12 15 42
15 75 -1 62 -22 97 -73 119 -34 15 -44 15 -52 2z m-269 -652 c-9 -12 -16 -36
-16 -53 0 -16 -7 -39 -15 -49 -8 -11 -15 -32 -15 -46 0 -14 -7 -35 -15 -46 -8
-10 -15 -35 -15 -55 0 -20 -7 -42 -15 -49 -8 -7 -15 -29 -15 -50 0 -21 -7 -43
-15 -50 -20 -17 -20 -99 0 -106 8 -3 17 -14 20 -25 4 -10 12 -19 20 -19 7 0
15 -6 17 -12 4 -10 57 -14 202 -18 l197 -5 -32 -35 c-17 -19 -48 -53 -68 -75
-20 -22 -52 -60 -71 -85 -19 -25 -37 -47 -41 -50 -3 -3 -39 -43 -78 -90 -40
-47 -82 -96 -95 -110 -12 -14 -46 -54 -76 -90 -30 -36 -58 -66 -62 -68 -5 -2
-8 -8 -8 -13 0 -6 -9 -19 -20 -31 l-20 -22 0 25 c1 13 7 35 15 49 8 14 14 39
15 56 0 17 7 37 15 44 8 7 15 27 15 44 0 18 7 41 15 52 8 10 15 33 15 49 0 17
7 39 15 49 8 11 15 35 15 54 0 18 5 42 11 54 13 23 -3 70 -35 105 -20 22 -27
23 -223 23 -191 0 -225 5 -190 27 7 4 28 28 47 53 19 25 37 47 41 50 6 5 40
45 124 144 21 26 48 58 60 70 11 13 45 53 75 90 30 38 74 89 97 115 23 25 59
69 80 98 22 30 39 46 41 38 2 -8 -4 -25 -12 -37z"/>
<path d="M2272 4815 c-4 -5 -5 -196 -2 -424 l5 -413 113 0 c62 0 115 2 118 5
6 6 6 828 0 834 -10 10 -228 8 -234 -2z"/>
<path d="M6474 6321 c-2 -2 -4 -58 -4 -123 l0 -119 121 3 120 3 1 115 c1 114
1 115 -23 117 -54 5 -211 8 -215 4z"/>
</g>
</svg>
