<?xml version="1.0" standalone="no"?>
<!DOCTYPE svg PUBLIC "-//W3C//DTD SVG 20010904//EN"
 "http://www.w3.org/TR/2001/REC-SVG-20010904/DTD/svg10.dtd">
<svg version="1.0" xmlns="http://www.w3.org/2000/svg"
 width="900.000000pt" height="522.000000pt" viewBox="0 0 900.000000 522.000000"
 preserveAspectRatio="xMidYMid meet">
<metadata>
Created by potrace 1.10, written by Peter Selinger 2001-2011
</metadata>
<g transform="translate(0.000000,522.000000) scale(0.100000,-0.100000)"
fill="#fcfcfc" stroke="none">
<path d="M1228 3843 c-15 -2 -45 -22 -67 -45 l-41 -40 0 -739 0 -738 -42 -3
-43 -3 -3 -127 c-3 -125 -2 -127 22 -143 22 -15 80 -16 573 -10 518 6 549 7
567 25 13 12 19 31 18 54 -1 19 3 38 8 41 6 3 10 2 10 -3 0 -14 44 -62 57 -62
6 0 13 -5 15 -11 9 -26 140 -41 216 -24 37 8 152 112 152 138 0 8 7 28 15 43
12 24 15 81 15 315 0 239 2 289 15 299 10 8 15 37 17 98 3 80 5 87 27 99 35
17 84 71 101 113 10 25 15 88 17 223 4 174 2 192 -17 232 -22 45 -76 101 -112
114 -19 7 -21 14 -19 70 3 70 -8 91 -48 91 -42 0 -50 -12 -53 -80 l-3 -65 -37
-3 c-42 -4 -43 -2 -39 74 3 47 -17 74 -54 74 -42 0 -58 -27 -53 -93 4 -52 2
-60 -16 -67 -34 -13 -106 -80 -106 -98 0 -9 -7 -26 -15 -36 -22 -29 -21 -368
0 -410 8 -15 15 -33 15 -39 0 -16 70 -97 84 -97 26 0 36 -29 40 -109 2 -53 8
-87 17 -96 11 -12 13 -65 11 -300 l-3 -285 -34 0 c-41 0 -36 -49 -35 371 1
224 -2 285 -14 320 -9 24 -16 50 -16 58 0 13 -21 40 -68 87 -36 36 -99 64
-141 64 l-38 0 -2 283 c-1 319 -6 348 -64 405 l-38 37 -382 1 c-210 1 -394 0
-409 -3z m770 -102 l22 -19 0 -721 0 -721 -410 0 -410 0 0 709 0 709 26 31 26
31 361 0 c339 -1 363 -2 385 -19z m629 -167 c-1 -39 13 -54 54 -54 31 0 49 17
49 47 0 40 37 11 44 -34 10 -59 -5 -95 -50 -120 -33 -19 -54 -23 -137 -23
-100 0 -124 6 -164 43 -31 27 -33 115 -4 141 19 18 39 7 26 -14 -11 -18 16
-40 50 -40 42 0 59 20 50 60 -7 30 -6 30 38 30 l45 0 -1 -36z m-41 -264 c98 0
165 4 169 10 3 6 11 10 17 10 7 0 9 -31 5 -99 -5 -108 -11 -118 -76 -153 -23
-13 -55 -18 -111 -18 -54 0 -91 6 -117 18 -65 30 -72 45 -73 157 0 77 3 96 12
87 8 -8 61 -12 174 -12z m-381 -296 c18 -7 44 -29 58 -48 l27 -35 3 -354 2
-354 28 -36 c27 -36 82 -68 116 -67 32 1 86 36 108 69 23 33 23 39 23 310 0
253 7 335 25 289 4 -9 5 -146 3 -305 -3 -283 -3 -289 -26 -318 -36 -46 -76
-65 -137 -65 -61 0 -101 19 -137 65 -23 29 -23 34 -29 380 -3 192 -9 363 -14
378 -9 34 -69 77 -107 77 -17 0 -28 5 -28 13 0 30 15 31 85 1z m421 -87 l2
-48 -42 3 c-40 3 -41 3 -41 43 -1 54 1 57 43 53 35 -3 36 -4 38 -51z m-456
-344 l0 -303 -22 0 -23 0 1 313 c0 171 1 316 2 321 1 5 11 1 22 -9 19 -17 20
-31 20 -322z m-60 -443 l0 -40 -500 0 -500 0 0 39 0 40 500 1 500 1 0 -41z"/>
<path d="M1292 3660 l-22 -10 2 -212 3 -213 336 -3 336 -2 12 29 c9 19 11 86
9 210 -3 167 -5 184 -22 197 -16 11 -77 14 -325 13 -168 0 -316 -4 -329 -9z
m578 -220 l0 -140 -260 0 -260 0 0 140 0 140 260 0 260 0 0 -140z"/>
<path d="M1407 3423 c-14 -4 -17 -13 -15 -41 3 -35 5 -37 41 -40 20 -2 37 0
37 5 0 4 3 17 6 29 3 13 -1 28 -11 38 -17 16 -25 18 -58 9z"/>
<path d="M1526 3417 c-12 -9 -17 -23 -14 -42 3 -26 8 -30 37 -33 49 -5 70 38
35 72 -19 19 -35 20 -58 3z"/>
<path d="M1641 3416 c-7 -8 -11 -27 -9 -43 3 -25 7 -28 43 -28 37 0 40 2 43
30 6 46 -49 75 -77 41z"/>
<path d="M1766 3417 c-12 -9 -17 -23 -14 -42 3 -28 6 -30 43 -30 37 0 40 2 43
30 4 29 -17 55 -43 55 -6 0 -19 -6 -29 -13z"/>
<path d="M1270 3140 c0 -40 0 -40 40 -40 40 0 40 0 40 40 0 40 0 40 -40 40
-40 0 -40 0 -40 -40z"/>
<path d="M1690 3131 c-8 -10 -35 -43 -58 -72 -24 -30 -53 -65 -65 -79 -12 -14
-53 -61 -90 -105 -38 -44 -79 -92 -93 -107 -14 -15 -24 -38 -24 -56 0 -34 18
-42 103 -44 46 -1 47 -1 47 -32 -1 -17 -7 -42 -15 -56 -8 -14 -15 -36 -15 -50
0 -14 -7 -34 -15 -44 -8 -11 -15 -39 -15 -62 0 -40 2 -43 32 -49 27 -6 36 -3
57 22 15 16 51 58 81 93 30 34 66 78 79 96 13 19 28 34 33 34 4 0 8 4 8 9 0 5
24 35 54 66 72 77 83 98 68 130 -11 23 -17 25 -82 25 -77 0 -85 8 -55 60 8 14
14 35 15 48 0 12 6 33 14 45 13 21 21 73 17 125 -1 18 -7 22 -33 22 -20 -1
-39 -8 -48 -19z m-74 -260 c-9 -16 -16 -44 -16 -61 0 -35 26 -50 86 -50 19 0
34 -3 34 -6 0 -8 -93 -114 -100 -114 -3 0 -5 26 -5 58 l0 57 -58 5 -59 5 30
29 c17 15 45 50 64 77 35 51 50 52 24 0z"/>
<path d="M1272 2928 l3 -133 35 0 35 0 3 133 3 132 -41 0 -41 0 3 -132z"/>
<path d="M2542 3498 c-31 -31 -5 -68 49 -68 41 0 56 21 44 60 -5 15 -15 20
-44 20 -20 0 -42 -5 -49 -12z"/>
<path d="M3227 3383 c-12 -12 -7 -69 8 -89 8 -10 15 -31 15 -45 0 -14 7 -34
15 -45 8 -10 15 -31 15 -45 0 -14 7 -34 15 -45 8 -10 15 -31 15 -45 0 -14 7
-34 15 -45 8 -10 15 -31 15 -45 0 -14 7 -34 15 -45 8 -10 15 -29 15 -42 0 -24
32 -42 76 -42 32 0 64 33 64 68 0 15 7 36 15 46 8 11 15 29 15 40 0 12 9 44
20 71 14 37 19 44 20 25 0 -14 7 -38 15 -54 8 -15 15 -37 15 -47 0 -10 6 -33
14 -51 8 -18 17 -45 20 -60 5 -22 14 -29 43 -34 49 -9 87 12 91 51 2 17 8 36
14 43 6 7 14 29 18 50 8 39 24 86 46 140 8 18 14 41 14 51 0 10 7 32 15 47 8
16 15 37 15 47 0 10 7 32 16 48 20 40 5 59 -46 59 -34 0 -40 -4 -59 -40 -12
-22 -21 -51 -21 -63 0 -12 -7 -31 -15 -41 -8 -11 -15 -31 -15 -45 0 -14 -7
-35 -15 -45 -8 -11 -15 -32 -15 -47 0 -27 -21 -54 -33 -42 -4 3 -7 17 -7 31 0
13 -6 36 -14 50 -15 31 -34 84 -45 127 -5 17 -17 48 -27 70 -16 34 -24 40 -54
43 -54 4 -68 -10 -51 -50 18 -45 19 -34 -20 -150 -6 -18 -13 -44 -16 -58 -6
-33 -24 -70 -35 -70 -4 0 -8 13 -8 29 0 16 -6 34 -14 40 -8 6 -16 24 -19 39
-6 33 -25 88 -43 125 -8 16 -14 37 -14 47 0 28 -28 50 -64 50 -18 0 -36 -3
-39 -7z"/>
<path d="M4155 3381 c-3 -6 -3 -26 0 -45 6 -29 -2 -52 -43 -138 -27 -57 -52
-110 -56 -118 -3 -8 -11 -24 -18 -35 -22 -39 -28 -50 -34 -65 -4 -8 -15 -34
-26 -58 -17 -35 -18 -45 -7 -58 19 -23 71 -12 116 25 37 29 41 30 153 32 l115
1 17 -27 c9 -15 22 -32 30 -36 20 -13 62 -11 83 5 19 14 19 15 2 33 -9 11 -17
25 -17 31 0 6 -21 53 -46 104 -25 51 -59 122 -76 158 -16 36 -34 72 -39 80 -5
8 -12 22 -15 30 -3 8 -13 31 -23 50 -17 31 -24 35 -64 38 -25 2 -48 -2 -52 -7z
m89 -218 c3 -10 10 -25 15 -33 5 -8 12 -22 16 -30 3 -8 12 -26 20 -40 l14 -25
-76 -3 c-80 -3 -94 1 -75 20 7 7 12 20 12 29 0 9 7 22 15 29 8 7 15 20 15 29
0 17 18 41 31 41 4 0 9 -8 13 -17z"/>
<path d="M4543 3383 c-17 -6 -17 -78 0 -91 7 -6 48 -12 91 -14 l78 -3 -2 -196
c-1 -169 2 -199 15 -213 19 -19 38 -20 66 -6 18 10 19 23 19 215 l0 205 80 0
c86 0 100 9 100 62 0 46 -11 48 -229 47 -114 0 -212 -3 -218 -6z"/>
<path d="M5024 3376 c-3 -8 -4 -31 -2 -52 l3 -39 88 -3 87 -3 0 -204 c0 -196
1 -205 21 -215 26 -15 77 -3 83 18 3 9 5 103 5 207 l-1 190 54 2 c29 2 68 5
86 8 30 6 32 8 32 49 0 31 -5 46 -16 50 -9 3 -110 6 -225 6 -170 0 -211 -3
-215 -14z"/>
<path d="M5572 3378 c-9 -9 -12 -80 -12 -260 l0 -248 27 -11 c15 -6 36 -6 52
-1 25 8 26 11 31 118 l5 109 50 -2 c28 -1 86 -6 129 -10 l79 -8 -2 -92 c-2
-85 -1 -92 21 -107 28 -20 52 -20 71 -2 11 11 13 60 11 259 -1 135 -5 251 -9
256 -8 14 -51 14 -76 1 -17 -9 -19 -22 -19 -105 l0 -95 -78 0 c-42 0 -93 4
-112 10 -22 6 -38 6 -44 0 -21 -21 -26 -7 -26 83 0 103 -7 117 -55 117 -17 0
-36 -5 -43 -12z"/>
<path d="M6183 3383 c-16 -6 -19 -378 -3 -388 6 -3 10 -16 10 -27 0 -28 86
-108 116 -108 12 0 26 -4 29 -10 10 -15 121 -12 175 6 26 8 62 30 80 47 56 55
63 84 68 278 4 194 0 209 -57 209 -48 0 -51 -10 -51 -202 0 -197 0 -198 -67
-232 -66 -33 -164 -10 -196 46 -14 25 -17 57 -17 197 0 117 -4 171 -12 179
-12 12 -52 15 -75 5z"/>
<path d="M6803 3383 c-17 -6 -19 -503 -2 -520 7 -7 65 -9 177 -6 l167 5 41 33
c56 47 72 95 49 161 -9 27 -23 56 -30 64 -12 14 -12 20 0 44 8 16 15 49 15 75
0 37 -6 54 -30 82 -49 60 -79 69 -237 68 -76 0 -144 -3 -150 -6z m305 -115
c17 -17 15 -52 -5 -71 -13 -11 -44 -16 -113 -18 l-95 -3 -3 52 -3 52 103 0
c68 0 108 -4 116 -12z m27 -224 c14 -22 15 -30 4 -50 -16 -32 -35 -35 -149
-32 l-95 3 -3 39 c-6 65 -5 66 117 66 106 0 109 -1 126 -26z"/>
<path d="M3292 2678 c-7 -7 -12 -19 -12 -27 0 -9 -7 -25 -15 -35 -8 -11 -15
-29 -15 -41 0 -11 -7 -31 -16 -43 -8 -12 -14 -37 -12 -55 4 -42 37 -49 65 -13
25 31 72 30 86 -3 11 -23 48 -29 65 -8 6 8 6 20 -1 37 -24 59 -46 126 -47 142
0 41 -70 74 -98 46z"/>
<path d="M3504 2675 c-48 -21 -77 -75 -69 -126 10 -58 65 -109 118 -109 56 0
109 34 105 68 -4 37 -32 51 -56 28 -13 -11 -32 -16 -54 -14 -29 3 -33 7 -36
36 -2 24 2 38 15 48 24 18 52 18 59 -1 7 -17 59 -21 69 -4 14 22 -5 55 -43 72
-45 20 -66 20 -108 2z"/>
<path d="M3738 2676 c-45 -20 -68 -58 -68 -115 0 -45 4 -54 37 -86 44 -42 96
-47 150 -14 29 18 34 26 31 53 -3 35 -36 48 -58 21 -7 -8 -27 -15 -45 -15 -28
0 -33 4 -38 27 -8 42 8 73 38 73 14 0 28 -7 31 -15 8 -21 70 -20 78 1 12 31
-58 85 -106 83 -13 0 -35 -6 -50 -13z"/>
<path d="M3915 2668 c-3 -13 -5 -68 -3 -123 l3 -100 58 -3 c65 -3 90 9 85 42
-2 16 -11 22 -35 24 -40 4 -43 19 -5 24 23 3 27 8 27 33 0 25 -4 30 -27 33
-32 4 -38 22 -7 22 11 0 28 4 38 10 16 8 20 5 25 -21 3 -17 3 -55 0 -83 -10
-81 -2 -85 158 -83 l133 2 0 30 c0 27 -3 30 -37 33 -41 3 -53 22 -15 22 33 0
49 15 45 41 -2 19 -10 25 -35 27 -45 4 -42 20 5 24 30 2 38 7 40 27 5 31 -12
41 -75 41 -71 0 -88 -24 -80 -111 6 -66 -2 -76 -43 -61 -22 8 -23 14 -21 70 2
61 -10 102 -31 102 -7 0 -22 -9 -34 -21 l-22 -21 -11 21 c-10 18 -21 21 -71
21 -53 0 -60 -2 -65 -22z"/>
<path d="M4400 2671 c-16 -31 -13 -206 5 -221 21 -18 55 -3 55 25 0 13 5 27
10 30 6 3 10 0 10 -7 0 -34 27 -51 83 -54 49 -3 59 0 75 20 24 31 66 31 87 0
18 -28 47 -31 66 -8 11 14 10 21 -4 46 -9 16 -17 36 -17 45 0 8 -6 27 -14 41
-8 15 -17 39 -20 53 -6 30 -45 54 -73 45 -17 -6 -63 -94 -63 -122 0 -6 -8 -27
-18 -47 l-18 -37 -18 35 c-18 34 -18 36 -2 48 13 9 17 24 14 52 -3 34 -8 42
-38 57 -49 24 -106 23 -120 -1z m286 -118 c-11 -11 -17 4 -9 23 7 18 8 18 11
1 2 -10 1 -21 -2 -24z"/>
<path d="M4790 2675 c-17 -21 -8 -48 19 -55 22 -5 24 -10 25 -82 1 -82 11
-104 45 -93 24 7 36 56 28 121 -4 41 -2 46 19 54 24 10 29 25 18 54 -8 22
-136 23 -154 1z"/>
<path d="M4970 2671 c-14 -28 -13 -204 2 -219 17 -17 113 -15 128 3 20 24 3
55 -30 55 -41 0 -47 18 -8 22 29 3 33 6 33 33 0 25 -4 30 -27 33 -38 4 -36 22
2 22 35 0 47 19 30 49 -15 30 -114 31 -130 2z"/>
<path d="M5210 2671 c-14 -28 -13 -204 2 -219 16 -16 110 -15 132 1 31 22 16
52 -27 55 -43 4 -50 19 -9 24 23 3 27 8 27 33 0 25 -4 30 -27 33 -39 5 -35 19
7 24 43 5 65 -7 65 -33 0 -12 6 -33 14 -47 8 -15 17 -40 21 -55 12 -58 88 -57
101 1 3 15 12 39 20 54 8 14 14 33 14 42 0 9 7 27 15 39 27 42 -3 84 -42 59
-7 -4 -23 -37 -36 -72 l-25 -64 -7 34 c-4 19 -12 43 -18 55 -5 11 -13 27 -17
35 -9 19 -47 25 -65 10 -9 -7 -15 -8 -20 0 -3 5 -31 10 -60 10 -43 0 -56 -4
-65 -19z"/>
<path d="M5734 2682 c-6 -4 -21 -32 -34 -62 -12 -30 -29 -71 -37 -91 -30 -73
3 -114 52 -65 33 33 68 33 89 1 19 -28 47 -32 67 -9 11 14 13 14 21 0 6 -11
24 -16 56 -16 51 0 90 20 128 67 22 27 23 27 24 6 0 -30 64 -73 108 -73 75 0
133 81 113 158 -13 45 -32 65 -82 82 -50 18 -107 -4 -130 -49 l-17 -31 -25 33
c-40 53 -155 78 -177 38 -5 -11 -10 -57 -10 -102 0 -71 -2 -80 -15 -69 -8 7
-15 22 -15 34 -1 11 -7 32 -15 46 -8 14 -14 35 -15 47 0 12 -12 31 -26 42 -28
22 -42 25 -60 13z m264 -74 c7 -7 12 -29 12 -50 0 -35 -2 -38 -29 -38 -28 0
-28 1 -26 48 2 26 4 48 4 50 3 7 29 0 39 -10z m240 0 c7 -7 12 -29 12 -49 0
-32 -4 -37 -27 -42 -36 -7 -48 -1 -62 29 -21 47 42 97 77 62z"/>
<path d="M6350 2671 c-16 -31 -13 -206 5 -221 24 -20 51 -3 61 38 8 34 13 37
49 42 38 5 41 7 49 48 7 30 15 42 28 42 16 0 18 -9 18 -80 0 -70 2 -81 21 -90
40 -22 49 -7 49 85 l0 85 30 0 30 0 0 -79 c0 -59 4 -82 16 -92 25 -21 49 1 52
50 3 36 6 41 18 30 8 -6 14 -17 14 -23 0 -25 54 -59 99 -64 42 -4 49 -1 84 32
33 33 37 42 37 87 0 64 -25 101 -78 118 -56 19 -106 -1 -141 -54 l-25 -40 -6
40 c-3 22 -9 46 -13 53 -11 17 -36 15 -43 -3 -5 -13 -8 -13 -27 0 -13 9 -45
15 -84 15 -52 0 -63 -3 -68 -19 -6 -19 -6 -19 -45 0 -53 26 -116 25 -130 0z
m103 -57 c9 -10 -4 -34 -18 -34 -17 0 -28 17 -20 30 7 11 28 13 38 4z m475 -6
c7 -7 12 -29 12 -49 0 -32 -3 -37 -27 -42 -35 -7 -73 16 -73 45 0 45 58 76 88
46z"/>
<path d="M7040 2671 c-5 -11 -10 -62 -10 -114 0 -102 10 -125 50 -112 20 6 25
19 21 67 -3 44 14 40 38 -8 27 -53 58 -72 90 -55 19 11 21 20 21 110 0 85 -3
100 -20 116 -30 27 -50 5 -50 -58 l0 -51 -24 35 c-67 94 -94 111 -116 70z"/>
</g>
</svg>
