<?xml version="1.0" standalone="no"?>
<!DOCTYPE svg PUBLIC "-//W3C//DTD SVG 20010904//EN"
 "http://www.w3.org/TR/2001/REC-SVG-20010904/DTD/svg10.dtd">
<svg version="1.0" xmlns="http://www.w3.org/2000/svg"
 width="300.000000pt" height="174.000000pt" viewBox="0 0 300.000000 174.000000"
 preserveAspectRatio="xMidYMid meet">
<metadata>
Created by potrace 1.10, written by Peter Selinger 2001-2011
</metadata>
<g transform="translate(0.000000,174.000000) scale(0.100000,-0.100000)"
fill="#000000" stroke="none">
<path d="M390 1261 c-6 -12 -10 -114 -10 -260 0 -208 -2 -241 -15 -241 -11 0
-15 -11 -15 -40 l0 -40 190 0 190 0 0 33 c1 29 2 30 12 12 37 -69 135 -57 154
18 3 14 4 63 2 111 -2 47 1 86 5 86 5 0 7 13 5 29 -2 21 4 35 21 49 20 15 25
31 29 80 6 78 -3 110 -32 123 -17 8 -22 17 -18 35 3 17 0 24 -10 24 -11 0 -14
-7 -10 -25 4 -22 1 -25 -23 -25 -24 0 -26 3 -21 25 5 19 2 25 -10 25 -12 0
-15 -6 -10 -23 4 -19 0 -26 -19 -35 -29 -13 -40 -59 -33 -134 4 -40 11 -56 32
-73 17 -14 24 -27 21 -43 -2 -12 -1 -24 3 -26 4 -2 7 -48 7 -103 0 -91 -1 -98
-20 -98 -19 0 -20 8 -23 127 -3 123 -3 128 -29 148 -14 11 -34 20 -44 20 -17
0 -19 9 -19 108 0 71 -4 112 -12 120 -8 8 -56 12 -150 12 -126 0 -138 -2 -148
-19z m288 -253 l2 -248 -140 0 -140 0 0 243 c0 134 3 247 7 251 4 3 66 5 137
4 l131 -3 3 -247z m148 187 c-3 -9 0 -15 10 -15 10 0 14 6 10 15 -4 11 2 15
20 15 19 0 25 -4 20 -15 -3 -9 0 -15 10 -15 10 0 14 6 10 15 -8 22 12 18 24
-4 13 -25 13 -27 -6 -45 -21 -21 -97 -21 -118 0 -19 18 -19 20 -6 45 12 22 35
26 26 4z m99 -151 c-12 -19 -24 -24 -60 -24 -49 0 -75 24 -75 70 0 26 1 26 61
22 39 -3 65 0 72 7 19 20 21 -46 2 -75z m-173 -41 c15 -14 18 -32 18 -130 0
-125 8 -153 45 -153 37 0 47 31 43 131 -2 66 0 89 10 89 9 0 12 -25 12 -92 0
-115 -12 -142 -61 -146 -56 -5 -63 12 -69 157 -5 119 -6 127 -27 136 -13 5
-23 13 -23 17 0 14 33 8 52 -9z m138 -23 c0 -15 -7 -20 -25 -20 -18 0 -25 5
-25 20 0 15 7 20 25 20 18 0 25 -5 25 -20z m-158 -115 c2 -93 0 -114 -10 -110
-8 3 -16 5 -18 5 -2 0 -4 50 -4 110 0 89 3 110 14 110 12 0 15 -23 18 -115z
m-22 -145 c0 -18 -9 -19 -170 -22 l-170 -3 0 23 c0 22 0 22 170 22 162 0 170
-1 170 -20z"/>
<path d="M430 1150 l0 -70 110 0 110 0 0 70 0 70 -110 0 -110 0 0 -70z m200 0
l0 -50 -90 0 -90 0 0 50 0 50 90 0 90 0 0 -50z"/>
<path d="M470 1130 c0 -5 5 -10 10 -10 6 0 10 5 10 10 0 6 -4 10 -10 10 -5 0
-10 -4 -10 -10z"/>
<path d="M510 1130 c0 -5 5 -10 10 -10 6 0 10 5 10 10 0 6 -4 10 -10 10 -5 0
-10 -4 -10 -10z"/>
<path d="M550 1130 c0 -5 5 -10 10 -10 6 0 10 5 10 10 0 6 -4 10 -10 10 -5 0
-10 -4 -10 -10z"/>
<path d="M590 1130 c0 -5 5 -10 10 -10 6 0 10 5 10 10 0 6 -4 10 -10 10 -5 0
-10 -4 -10 -10z"/>
<path d="M430 1050 c0 -5 5 -10 10 -10 6 0 10 5 10 10 0 6 -4 10 -10 10 -5 0
-10 -4 -10 -10z"/>
<path d="M518 980 c-32 -38 -58 -72 -58 -75 0 -3 13 -5 30 -5 l29 0 -14 -47
c-18 -57 -17 -53 -6 -53 11 0 121 128 121 141 0 5 -13 9 -29 9 l-30 0 15 35
c15 38 18 65 7 65 -5 0 -34 -32 -65 -70z m39 8 c-19 -51 -18 -57 7 -60 l24 -3
-34 -40 c-31 -36 -34 -37 -24 -12 14 39 13 45 -11 49 -20 3 -20 4 8 40 29 39
38 46 30 26z"/>
<path d="M430 980 c0 -22 5 -40 10 -40 6 0 10 18 10 40 0 22 -4 40 -10 40 -5
0 -10 -18 -10 -40z"/>
<path d="M850 1160 c0 -5 7 -10 15 -10 8 0 15 5 15 10 0 6 -7 10 -15 10 -8 0
-15 -4 -15 -10z"/>
<path d="M1082 1119 c3 -8 16 -47 29 -86 29 -91 49 -97 69 -20 l14 52 14 -52
c22 -80 41 -71 73 32 21 66 24 85 13 85 -8 0 -21 -24 -31 -60 -10 -33 -21 -60
-24 -60 -3 0 -14 27 -24 60 -11 37 -24 60 -33 60 -9 0 -12 -6 -8 -17 6 -14 1
-37 -20 -103 -3 -8 -15 14 -27 49 -12 36 -29 67 -36 69 -9 3 -12 0 -9 -9z"/>
<path d="M1395 1120 c3 -5 -11 -41 -30 -81 -20 -39 -34 -74 -31 -77 3 -3 16 0
29 6 34 17 96 20 101 5 3 -7 12 -13 21 -13 11 0 5 21 -27 85 -23 47 -48 85
-56 85 -7 0 -11 -4 -7 -10z m50 -106 c0 -1 -16 -4 -36 -7 l-36 -5 20 39 19 39
17 -32 c9 -18 17 -33 16 -34z"/>
<path d="M1520 1115 c0 -10 10 -15 30 -15 l30 0 0 -70 c0 -40 4 -70 10 -70 6
0 10 30 10 70 l0 70 30 0 c20 0 30 5 30 15 0 12 -14 15 -70 15 -56 0 -70 -3
-70 -15z"/>
<path d="M1680 1115 c0 -10 10 -15 30 -15 l30 0 0 -70 c0 -57 3 -70 16 -70 13
0 15 11 12 70 l-3 70 33 0 c22 0 32 5 32 15 0 12 -15 15 -75 15 -60 0 -75 -3
-75 -15z"/>
<path d="M1860 1045 c0 -69 3 -85 15 -85 11 0 15 11 15 40 l0 39 50 -2 50 -2
0 -37 c0 -21 5 -38 10 -38 6 0 10 35 10 85 0 50 -4 85 -10 85 -5 0 -10 -16
-10 -35 l0 -35 -50 0 -50 0 0 35 c0 24 -5 35 -15 35 -12 0 -15 -16 -15 -85z"/>
<path d="M2060 1076 c0 -30 4 -66 9 -79 19 -50 114 -55 138 -6 19 36 17 139
-2 139 -12 0 -15 -14 -15 -63 0 -69 -10 -87 -50 -87 -40 0 -50 18 -50 87 0 49
-3 63 -15 63 -11 0 -15 -13 -15 -54z"/>
<path d="M2270 1045 l0 -85 58 0 c32 0 63 5 70 12 15 15 16 68 2 68 -7 0 -7 7
0 21 9 16 8 26 -5 45 -13 21 -23 24 -70 24 l-55 0 0 -85z m110 35 c0 -15 -7
-20 -29 -20 -16 0 -36 -3 -45 -6 -12 -5 -16 0 -16 20 0 24 3 26 45 26 38 0 45
-3 45 -20z m7 -66 c8 -21 -14 -34 -59 -34 -34 0 -38 3 -38 25 0 23 4 25 45 25
33 0 47 -5 52 -16z"/>
<path d="M1095 867 c-20 -47 -19 -50 6 -35 17 10 23 10 26 1 11 -29 21 -10 11
20 -17 51 -26 54 -43 14z m25 -7 c0 -5 -5 -10 -11 -10 -5 0 -7 5 -4 10 3 6 8
10 11 10 2 0 4 -4 4 -10z"/>
<path d="M1166 884 c-19 -19 -20 -25 -3 -48 14 -19 48 -19 54 0 2 7 -6 10 -23
6 -21 -4 -25 -1 -22 14 3 13 11 18 26 17 25 -3 30 12 6 21 -21 8 -20 8 -38
-10z"/>
<path d="M1247 889 c-21 -12 -22 -42 -2 -59 15 -13 55 -5 55 11 0 6 -9 8 -20
4 -26 -8 -41 1 -33 21 4 11 13 14 29 10 28 -7 31 -1 6 13 -11 6 -24 6 -35 0z"/>
<path d="M1328 893 c-13 -3 -18 -15 -18 -39 0 -27 4 -34 20 -34 25 0 26 17 3
23 -17 4 -17 5 0 6 9 0 17 6 17 12 0 5 -4 8 -9 4 -5 -3 -12 -1 -16 5 -3 5 1
10 9 10 9 0 16 5 16 10 0 6 -1 9 -2 9 -2 -1 -11 -3 -20 -6z"/>
<path d="M1372 863 c-2 -32 2 -43 13 -43 8 0 15 5 15 10 0 6 -4 10 -9 10 -6 0
-12 15 -14 33 -3 28 -4 26 -5 -10z"/>
<path d="M1428 893 c-28 -7 -19 -67 10 -71 12 -2 22 1 22 7 0 6 -8 11 -17 12
-11 0 -13 3 -5 6 6 2 12 9 12 14 0 6 -4 7 -10 4 -5 -3 -10 -2 -10 4 0 5 8 11
18 13 9 2 13 6 7 9 -5 3 -18 4 -27 2z"/>
<path d="M1544 864 c-8 -20 -12 -39 -8 -43 4 -3 9 0 11 7 3 6 11 12 18 12 7 0
15 -6 18 -12 2 -7 7 -10 11 -7 7 6 -20 79 -30 79 -3 0 -12 -16 -20 -36z m26
-4 c0 -5 -5 -10 -11 -10 -5 0 -7 5 -4 10 3 6 8 10 11 10 2 0 4 -4 4 -10z"/>
<path d="M1600 888 c0 -5 4 -8 9 -8 6 0 12 -15 14 -32 l4 -33 1 33 c1 17 7 32
12 32 6 0 10 3 10 8 0 4 -11 7 -25 7 -14 0 -25 -3 -25 -7z"/>
<path d="M1678 893 c-13 -3 -18 -15 -18 -39 0 -27 4 -34 20 -34 25 0 26 17 3
23 -17 4 -17 5 0 6 9 0 17 6 17 12 0 5 -4 8 -9 4 -5 -3 -12 -1 -16 5 -3 5 1
10 9 10 9 0 16 5 16 10 0 6 -1 9 -2 9 -2 -1 -11 -3 -20 -6z"/>
<path d="M1758 892 c-13 -2 -18 -13 -18 -38 0 -31 3 -34 28 -34 26 1 26 1 8
15 -11 8 -14 15 -8 15 7 0 12 5 12 11 0 5 -4 7 -10 4 -5 -3 -10 -2 -10 4 0 5
6 11 13 14 17 6 5 14 -15 9z"/>
<path d="M1790 897 c0 -13 29 -77 35 -77 9 0 37 71 31 78 -3 3 -12 -10 -20
-29 -9 -19 -15 -27 -16 -18 0 15 -29 61 -30 46z"/>
<path d="M1905 867 c-20 -47 -19 -50 6 -35 17 10 23 10 26 1 11 -29 21 -10 11
20 -17 51 -26 54 -43 14z m25 -7 c0 -5 -5 -10 -11 -10 -5 0 -7 5 -4 10 3 6 8
10 11 10 2 0 4 -4 4 -10z"/>
<path d="M1970 859 c0 -31 4 -39 19 -39 46 0 52 64 6 73 -23 4 -25 1 -25 -34z
m40 1 c0 -11 -7 -20 -15 -20 -8 0 -15 9 -15 20 0 11 7 20 15 20 8 0 15 -9 15
-20z"/>
<path d="M2057 889 c-22 -13 -22 -58 -1 -66 39 -15 73 46 37 65 -12 7 -25 7
-36 1z m33 -29 c0 -11 -6 -20 -14 -20 -18 0 -29 16 -21 30 11 18 35 11 35 -10z"/>
<path d="M2180 888 c0 -4 4 -8 10 -8 5 0 7 -13 4 -30 -4 -19 -2 -30 5 -30 6 0
11 14 11 30 0 17 5 30 12 30 6 0 8 3 4 7 -10 10 -46 11 -46 1z"/>
<path d="M2243 860 c0 -25 2 -35 4 -22 2 12 2 32 0 45 -2 12 -4 2 -4 -23z"/>
<path d="M2285 886 c-23 -17 -16 -60 11 -64 26 -4 48 21 39 47 -8 25 -29 33
-50 17z m35 -26 c0 -13 -7 -20 -20 -20 -19 0 -27 20 -13 33 13 14 33 6 33 -13z"/>
<path d="M2350 863 c0 -25 5 -43 11 -43 7 0 9 10 5 28 -6 26 -6 26 9 8 8 -11
15 -23 15 -28 0 -4 4 -8 9 -8 12 0 21 63 10 74 -5 6 -9 -1 -9 -18 l0 -27 -25
28 -24 28 -1 -42z"/>
<path d="M1470 855 c0 -19 5 -35 11 -35 6 0 9 7 5 15 -7 20 4 19 18 -1 10 -13
12 -10 13 20 1 32 -2 36 -23 36 -21 0 -24 -5 -24 -35z m40 21 c0 -11 -19 -15
-25 -6 -3 5 1 10 9 10 9 0 16 -2 16 -4z"/>
<path d="M2120 855 c0 -19 5 -35 10 -35 6 0 10 7 10 15 0 8 7 15 15 15 8 0 15
9 15 20 0 15 -7 20 -25 20 -22 0 -25 -4 -25 -35z m40 15 c0 -5 -4 -10 -10 -10
-5 0 -10 5 -10 10 0 6 5 10 10 10 6 0 10 -4 10 -10z"/>
</g>
</svg>
