<?xml version="1.0" standalone="no"?>
<!DOCTYPE svg PUBLIC "-//W3C//DTD SVG 20010904//EN"
 "http://www.w3.org/TR/2001/REC-SVG-20010904/DTD/svg10.dtd">
<svg version="1.0" xmlns="http://www.w3.org/2000/svg"
 width="300.000000pt" height="317.000000pt" viewBox="0 0 300.000000 317.000000"
 preserveAspectRatio="xMidYMid meet">
<metadata>
Created by potrace 1.10, written by Peter Selinger 2001-2011
</metadata>
<g transform="translate(0.000000,317.000000) scale(0.100000,-0.100000)"
fill="#000000" stroke="none">
<path d="M635 2891 c-199 -58 -361 -214 -427 -411 -22 -64 -22 -75 -25 -771
-4 -794 -4 -791 66 -934 86 -174 256 -303 441 -335 45 -8 285 -10 775 -8 l710
3 73 27 c187 68 323 206 389 393 l28 80 3 707 c3 786 3 792 -62 923 -82 164
-228 284 -403 329 -53 14 -158 16 -784 15 -659 0 -729 -2 -784 -18z m1495 -10
c97 -16 200 -47 200 -61 0 -4 11 -11 25 -14 14 -4 25 -11 25 -16 0 -6 6 -10
14 -10 19 0 138 -128 170 -182 13 -24 37 -79 52 -123 l28 -80 0 -710 c1 -786
3 -763 -64 -902 -67 -138 -174 -231 -345 -300 l-70 -28 -735 0 -735 0 -88 34
c-202 77 -332 218 -383 416 -16 64 -18 130 -19 740 -2 794 0 811 88 960 74
125 224 237 349 260 13 3 35 8 50 12 39 11 1372 14 1438 4z"/>
<path d="M861 2363 c-20 -10 -43 -34 -54 -57 -19 -36 -20 -61 -21 -569 -1
-411 -4 -531 -13 -534 -40 -14 -52 -38 -54 -108 -2 -109 -1 -112 29 -124 32
-12 839 -10 860 3 7 4 17 19 23 32 l9 25 37 -30 c80 -62 177 -50 259 33 62 61
63 65 69 351 2 105 7 220 12 256 7 59 12 69 46 99 64 56 69 73 69 251 0 136
-3 163 -18 186 -24 37 -45 58 -71 72 -19 10 -23 20 -23 57 0 48 -16 74 -47 74
-31 0 -42 -14 -45 -60 -3 -36 -7 -46 -23 -48 -18 -2 -21 3 -22 38 -3 64 -34
88 -75 56 -13 -9 -18 -27 -18 -58 0 -42 -3 -47 -40 -72 -65 -43 -72 -68 -74
-245 -2 -121 1 -161 12 -178 17 -27 10 -29 -24 -6 -14 9 -42 19 -62 22 l-36 6
-3 220 c-2 132 -8 231 -14 248 -7 15 -26 38 -43 50 -30 21 -40 22 -321 25
-262 2 -293 1 -324 -15z m602 -17 c71 -30 72 -32 75 -297 l3 -239 25 0 c53 0
129 -46 157 -95 8 -13 14 -113 17 -293 5 -256 6 -275 24 -288 26 -18 32 -18
56 6 19 19 20 33 20 229 0 176 -2 210 -15 215 -11 4 -15 22 -15 73 -1 65 -2
69 -33 88 -17 11 -42 35 -54 54 -22 32 -23 44 -23 190 0 149 1 158 24 192 14
20 38 42 55 49 30 12 31 15 31 71 0 56 1 59 25 59 24 0 25 -3 25 -60 l0 -60
45 0 45 0 0 60 c0 57 1 60 25 60 24 0 25 -3 25 -59 0 -58 1 -59 37 -78 65 -34
74 -65 71 -245 -3 -173 -9 -190 -76 -233 -30 -19 -31 -23 -32 -88 0 -51 -4
-69 -15 -73 -13 -5 -15 -40 -15 -230 0 -251 -4 -269 -63 -321 -63 -55 -161
-57 -226 -5 -64 51 -65 59 -71 352 -3 146 -9 271 -13 278 -5 6 -19 12 -33 12
l-24 0 0 -250 0 -250 29 0 c29 0 29 0 36 -75 4 -41 5 -81 1 -90 -5 -13 -57
-15 -433 -13 l-428 3 0 85 0 85 33 3 32 3 0 552 c0 502 2 555 17 577 38 56 48
58 346 59 197 1 265 -2 290 -13z m326 -689 c-2 -29 2 -62 9 -73 11 -21 17
-408 6 -426 -3 -4 -11 -5 -19 -2 -12 5 -15 45 -14 241 0 129 -2 238 -5 241 -3
3 0 12 7 20 9 13 9 14 0 8 -8 -4 -13 -2 -13 6 0 7 -3 24 -7 37 -5 21 -4 22 16
11 19 -10 22 -19 20 -63z m-209 -49 c1 -18 2 -117 3 -220 1 -127 -1 -188 -9
-188 -7 0 -10 72 -10 220 -1 121 3 220 8 220 4 0 8 -15 8 -32z"/>
<path d="M879 2291 l-24 -19 -3 -551 -2 -551 322 0 323 0 -5 556 c-5 535 -6
556 -24 570 -16 11 -73 14 -292 14 -253 0 -273 -1 -295 -19z m498 -10 c41 -1
67 -6 77 -16 13 -14 15 -82 13 -543 l-2 -527 -288 2 c-159 0 -290 3 -293 5 -2
3 -4 240 -4 528 0 444 2 525 14 539 14 16 116 18 483 12z"/>
<path d="M940 2242 c-43 -15 -45 -26 -40 -189 3 -107 9 -158 17 -160 8 -3 7
-12 -5 -33 -14 -25 -15 -31 -2 -55 12 -22 12 -28 1 -34 -17 -11 -16 -178 1
-198 12 -15 46 -17 67 -4 11 7 14 31 12 102 -1 51 -6 100 -11 110 -7 12 -5 21
5 29 10 8 11 18 4 36 -5 14 -9 27 -9 30 0 2 55 4 123 4 275 -3 315 -1 331 16
13 13 16 42 16 163 0 135 -2 149 -20 166 -18 16 -43 18 -249 19 -126 1 -235 0
-241 -2z m484 -38 c9 -23 7 -277 -2 -292 -7 -9 -64 -12 -253 -10 l-244 3 -3
145 c-1 79 0 150 2 157 4 10 59 13 250 13 213 0 245 -2 250 -16z m-454 -369
c0 -20 -5 -25 -25 -25 -20 0 -25 5 -25 25 0 20 5 25 25 25 20 0 25 -5 25 -25z
m0 -162 c0 -93 0 -93 -25 -93 -25 0 -25 0 -25 94 0 94 0 94 25 92 25 -1 25 -2
25 -93z"/>
<path d="M970 2060 l0 -115 205 0 205 0 0 115 0 115 -205 0 -205 0 0 -115z
m374 79 c3 -3 7 -24 9 -48 3 -41 3 -42 -24 -36 -16 4 -36 2 -45 -3 -12 -7 -26
-6 -42 1 -18 8 -29 8 -44 -2 -17 -11 -25 -11 -45 0 -19 10 -28 10 -43 1 -14
-8 -27 -9 -50 0 -23 8 -35 7 -43 -1 -8 -8 -4 -11 16 -11 22 0 27 -5 27 -25 0
-20 -5 -25 -25 -25 -20 0 -25 5 -25 24 0 14 -4 28 -10 31 -12 8 -10 88 3 96
12 8 333 6 341 -2z m-194 -124 c0 -20 -5 -25 -25 -25 -20 0 -25 5 -25 25 0 20
5 25 25 25 20 0 25 -5 25 -25z m95 0 c0 -20 -5 -25 -25 -25 -20 0 -25 5 -25
25 0 20 5 25 25 25 20 0 25 -5 25 -25z m93 0 c0 -20 -6 -25 -24 -25 -19 0 -24
5 -24 25 0 20 5 25 24 25 18 0 24 -5 24 -25z m-244 -33 c3 -5 -1 -9 -9 -9 -8
0 -12 4 -9 9 3 4 7 8 9 8 2 0 6 -4 9 -8z m91 -10 c-3 -3 -11 0 -18 7 -9 10 -8
11 6 5 10 -3 15 -9 12 -12z m92 2 c-3 -3 -12 -4 -19 -1 -8 3 -5 6 6 6 11 1 17
-2 13 -5z"/>
<path d="M1253 1853 c-7 -2 -40 -37 -74 -76 -33 -40 -71 -83 -83 -97 -137
-160 -137 -160 -120 -186 17 -25 19 -26 67 -29 15 -1 30 -5 33 -8 4 -3 -4 -43
-16 -88 -24 -90 -18 -129 19 -129 26 0 135 113 198 206 12 18 26 34 30 36 16
6 73 87 73 102 0 23 -41 46 -82 46 -36 0 -47 8 -31 24 4 4 9 18 11 33 1 14 12
48 22 76 l20 51 -22 23 c-22 24 -25 25 -45 16z m32 -33 c3 -5 -8 -54 -25 -108
-16 -55 -30 -102 -30 -106 0 -3 27 -6 59 -6 33 0 63 -5 66 -10 8 -12 -250
-323 -271 -328 -26 -6 -25 25 2 114 15 49 29 95 31 102 4 9 -11 12 -56 12 -44
0 -63 4 -67 14 -6 17 252 326 272 326 7 0 16 -4 19 -10z"/>
<path d="M1185 1682 c-11 -15 -43 -55 -72 -89 l-53 -63 45 7 c68 9 78 -5 54
-75 -11 -31 -18 -59 -17 -63 3 -7 129 135 136 153 2 4 -19 8 -47 8 -27 0 -52
4 -56 9 -3 5 6 39 19 75 25 71 23 82 -9 38z m-35 -102 c0 -11 -7 -20 -15 -20
-18 0 -19 6 -2 25 16 19 17 18 17 -5z m70 -65 c-7 -8 -14 -15 -15 -15 -2 0 -5
7 -9 15 -4 10 1 15 16 15 17 0 18 -2 8 -15z"/>
<path d="M1860 2161 c0 -35 -2 -38 -25 -33 -20 3 -25 10 -25 33 0 35 -10 36
-38 6 -30 -32 -29 -87 2 -124 24 -27 26 -28 131 -28 105 0 107 1 131 28 30 35
31 85 3 121 -28 36 -47 34 -41 -4 4 -27 1 -30 -22 -30 -23 0 -26 4 -26 35 0
35 0 35 -45 35 l-45 0 0 -39z m64 1 c9 -14 -12 -35 -28 -29 -23 9 -20 37 3 37
11 0 22 -4 25 -8z m-86 -58 c6 3 15 -8 21 -26 14 -40 15 -38 -15 -38 -39 0
-62 17 -69 50 -10 44 3 56 30 30 13 -12 28 -19 33 -16z m198 -6 c-6 -41 -16
-49 -67 -55 -43 -6 -44 -6 -26 14 9 11 17 24 17 30 0 6 11 14 25 17 14 4 28
13 31 21 10 26 25 5 20 -27z m-106 -13 c0 -20 -5 -25 -25 -25 -20 0 -25 5 -25
25 0 20 5 25 25 25 20 0 25 -5 25 -25z"/>
<path d="M1741 1938 c0 -78 16 -125 50 -150 32 -24 129 -34 185 -19 64 17 78
40 85 140 3 47 5 87 4 89 -1 1 -15 -4 -31 -13 -40 -21 -232 -21 -260 0 -31 23
-34 19 -33 -47z m299 -41 c0 -40 -5 -54 -28 -77 -26 -26 -35 -28 -105 -29 -68
-1 -79 2 -106 25 -27 23 -31 32 -31 78 l0 52 135 -1 135 0 0 -48z"/>
<path d="M1540 1744 c0 -19 5 -24 26 -24 40 0 84 -50 84 -97 1 -21 0 -134 0
-251 -1 -190 1 -217 19 -257 42 -95 173 -107 234 -21 21 30 22 42 25 259 l3
227 -25 0 -26 0 0 -224 0 -224 -31 -26 c-41 -35 -83 -34 -120 3 l-29 29 0 257
c0 218 -2 262 -16 292 -20 42 -51 63 -104 73 -37 7 -40 6 -40 -16z"/>
<path d="M1860 1675 l0 -45 45 0 45 0 0 45 0 45 -45 0 -45 0 0 -45z m63 9 c9
-9 -4 -34 -18 -34 -14 0 -27 25 -18 34 4 3 12 6 18 6 6 0 14 -3 18 -6z"/>
<path d="M789 1123 c0 -2 -1 -22 -1 -45 l-1 -43 386 -3 387 -2 0 47 0 48 -385
0 c-212 0 -385 -1 -386 -2z m745 -40 c4 -9 5 -18 3 -20 -6 -5 -719 -5 -724 1
-3 3 -3 11 0 19 4 11 68 14 360 15 318 1 356 0 361 -15z"/>
</g>
</svg>
